<svg version="1.1" xmlns="http://www.w3.org/2000/svg" width="999" height="1024" viewBox="0 0 999 1024">
<g id="icomoon-ignore">
</g>
<path fill="#191919" d="M149.854 4.346h699.317c82.762 0 149.854 67.092 149.854 149.854v699.317c0 82.762-67.092 149.854-149.854 149.854h-699.317c-82.762 0-149.854-67.092-149.854-149.854v-699.317c0-82.762 67.092-149.854 149.854-149.854z"></path>
<path fill="#e7e7e7" d="M762.53 462.124h144.859l14.286-17.583h-207.422l-57.544 106.346h134.419l9.641-17.583h-76.85l14.661-26.799h76.875l9.266-17.583h-76.45l14.286-26.799zM651.689 488.923h-57.194l9.291-17.183c3.846-7.118 7.318-9.616 13.137-9.616 5.794 0 7.717 5.020 4.62 11.314h58.318l5.794-11.314c4.246-8.367 4.246-17.583-6.169-17.583h-102.75c-9.266 0-16.609 1.249-22.004 10.889l-18.157 33.467c-5.045 9.641-4.645 17.608 7.717 17.608h59.092l-9.641 18.407c-2.722 5.045-6.194 8.392-14.311 8.392-6.943 0-6.569-5.020-3.472-10.040h-57.943l-6.943 12.538c-4.246 7.967-0.774 15.085 9.241 15.085h102c0.11 0.002 0.24 0.003 0.37 0.003 9.327 0 17.439-5.201 21.594-12.861l0.064-0.129 17.383-31.394c3.846-7.967 1.923-17.583-10.040-17.583z"></path>
<path fill="#e7e7e7" d="M899.846 465.221c-4.742 0.111-8.543 3.981-8.543 8.739 0 0.062 0.001 0.124 0.002 0.186v-0.009c0 4.995 3.821 9.041 8.542 9.041 4.695 0 8.492-4.021 8.492-9.041 0.001-0.053 0.002-0.116 0.002-0.178 0-4.741-3.774-8.6-8.481-8.738h-0.013zM899.846 481.405c-3.848-0.055-6.946-3.187-6.946-7.042 0-0.070 0.001-0.141 0.003-0.211v0.010c0-3.996 3.097-7.193 6.943-7.193 3.796 0 6.868 3.222 6.868 7.168 0.003 0.075 0.004 0.163 0.004 0.251 0 3.825-3.060 6.935-6.865 7.017h-0.008zM519.967 444.566h-87.315c-11.988 0-27.423 0-36.714 17.583l-38.612 71.18c-5.395 9.616-0.749 17.583 9.266 17.583h101.601c10.415 0 16.983-3.347 25.1-17.583l38.637-71.18c4.995-9.216-2.697-17.583-11.988-17.583zM470.89 471.789l-28.972 53.148c-3.871 7.543-7.343 8.392-16.234 8.392-8.866 0-11.189-3.347-8.492-8.392l29.371-53.148c4.246-7.967 9.241-9.641 16.609-9.641 7.343 0 11.589 2.498 7.742 9.641zM366.992 444.566h-112.041l-48.278 88.763h-106.596l-16.284 17.583h231.424c14.286 0 18.932-7.543 22.028-13.412l11.589-21.754c3.072-5.869 3.072-12.563-3.097-16.334 6.194 0 14.686-4.596 19.706-14.236l11.589-21.354c5.794-10.49-1.174-19.256-10.040-19.256zM309.423 516.171l-5.794 10.040c-1.548 3.347-4.246 7.118-10.814 7.118h-28.572l14.686-26.799h27.798c5.020 0 5.020 5.020 2.697 9.641zM333.774 471.789l-5.794 10.040c-1.548 3.347-4.246 7.118-10.839 7.118h-28.572l14.686-26.799h27.798c5.020 0 5.020 5.020 2.722 9.641z"></path>
<path fill="#e7e7e7" d="M904.192 471.789c0-0.824-0.35-1.723-1.049-2.148-0.593-0.32-1.297-0.508-2.046-0.508-0.097 0-0.194 0.003-0.29 0.009l0.013-0.001h-4.146v10.065h1.399v-4.67h1.673l2.722 4.645h1.623l-2.897-4.645c1.698-0.050 2.997-0.774 2.997-2.747zM899.621 473.338h-1.548v-3.047h2.473c1.174 0 2.248 0.2 2.248 1.499 0 1.798-1.823 1.548-3.172 1.548z"></path>
</svg>