<svg aria-hidden="true" style="position: absolute; width: 0; height: 0; overflow: hidden;" version="1.1" xmlns="http://www.w3.org/2000/svg" xmlns:xlink="http://www.w3.org/1999/xlink">
<defs>
<symbol id="arrow" viewBox="0 0 31 32">
<path stroke-linejoin="miter" stroke-linecap="butt" stroke-miterlimit="4" stroke-width="2.7826" d="M1.391 29.783l27.826-27.826M29.217 1.957h-27.826M29.217 1.957v27.826"></path>
</symbol>
<symbol id="question" viewBox="0 0 16 32">
<path d="M6.133 21.992c0-1.563 0.163-2.832 0.488-3.809s1.12-2.22 2.383-3.73l1.367-1.758c0.911-1.276 1.367-2.604 1.367-3.984 0-1.367-0.286-2.435-0.859-3.203-0.56-0.781-1.367-1.172-2.422-1.172-0.99 0-1.816 0.352-2.48 1.055-0.651 0.703-0.977 1.647-0.977 2.832h-3.438c0.026-2.148 0.677-3.861 1.953-5.137s2.923-1.914 4.941-1.914c2.096 0 3.743 0.658 4.941 1.973s1.797 3.131 1.797 5.449c0 2.214-0.905 4.434-2.715 6.66l-1.797 2.168c-0.742 1.055-1.113 2.578-1.113 4.57h-3.438zM8.008 26.113c0.651 0 1.139 0.202 1.465 0.606 0.339 0.391 0.508 0.879 0.508 1.465s-0.169 1.074-0.508 1.465c-0.326 0.378-0.814 0.566-1.465 0.566-0.664 0-1.159-0.189-1.484-0.566-0.313-0.391-0.469-0.879-0.469-1.465s0.156-1.074 0.469-1.465c0.326-0.404 0.82-0.606 1.484-0.606z"></path>
</symbol>
<symbol id="quotes" viewBox="0 0 44 32">
<path d="M0 15.411v-15.411h17.875v11.603c0 12.087-5.958 18.886-17.875 20.397v-6.346c3.010-0.786 5.068-1.934 6.173-3.445 1.167-1.511 1.874-3.777 2.119-6.799h-8.293z"></path>
<path d="M25.645 15.411v-15.411h17.875v11.603c0 12.087-5.958 18.886-17.875 20.397v-6.346c3.010-0.786 5.068-1.934 6.173-3.445 1.167-1.511 1.874-3.777 2.119-6.799h-8.293z"></path>
</symbol>
<symbol id="hamburger" viewBox="0 0 59 32">
<path d="M58.667 31.971h-58.667v-5.205h58.667v5.205zM58.667 18.958h-58.667v-5.205h58.667v5.205zM58.667 5.946h-58.667v-5.205h58.667v5.205z"></path>
</symbol>
<symbol id="bose-logo" viewBox="0 0 267 32">
<path d="M216.019 5.3h46.101l4.549-5.287h-66.017l-18.317 31.972h42.782l3.073-5.287h-24.464l4.671-8.056h24.464l2.951-5.287h-24.342l4.549-8.056zM180.737 13.356h-18.195l2.95-5.161c1.23-2.14 2.336-2.895 4.18-2.895s2.459 1.511 1.475 3.399h18.563l1.844-3.399c1.352-2.518 1.352-5.287-1.967-5.287h-32.701c-2.95 0-5.286 0.378-7.008 3.273l-5.778 10.070c-1.598 2.895-1.475 5.287 2.459 5.287h18.809l-3.073 5.538c-0.861 1.511-1.967 2.517-4.549 2.517-2.213 0-2.090-1.511-1.106-3.021h-18.441l-2.213 3.776c-1.352 2.391-0.246 4.531 2.95 4.531h32.455c2.95 0 5.532-1.385 7.008-3.902l5.532-9.44c1.23-2.392 0.615-5.287-3.196-5.287z"></path>
<path d="M259.715 6.231c-1.5 0-2.717 1.208-2.717 2.683 0 1.506 1.217 2.713 2.717 2.713 1.493 0 2.703-1.208 2.703-2.713-0-1.475-1.21-2.683-2.703-2.683zM259.715 11.1c-1.225 0-2.202-0.956-2.202-2.186 0-1.192 0.978-2.156 2.202-2.156 1.209 0 2.187 0.963 2.187 2.156 0 1.23-0.978 2.186-2.187 2.186zM138.813 0.013h-27.783c-3.811 0-8.729 0-11.679 5.287l-12.294 21.398c-1.721 2.895-0.246 5.287 2.95 5.287h32.332c3.32 0 5.409-1.007 7.991-5.287l12.294-21.398c1.598-2.769-0.861-5.287-3.811-5.287zM123.2 8.195l-9.22 15.986c-1.23 2.266-2.336 2.517-5.163 2.517s-3.565-1.007-2.705-2.517l9.343-15.986c1.352-2.392 2.95-2.895 5.286-2.895s3.689 0.755 2.459 2.895zM90.13 0.013h-35.652l-15.367 26.685h-33.93l-5.181 5.287h73.657c4.548 0 6.024-2.266 7.007-4.028l3.688-6.546c0.983-1.762 0.983-3.776-0.983-4.909 1.971 0 4.671-1.385 6.27-4.28l3.688-6.419c1.844-3.147-0.369-5.79-3.196-5.79zM71.813 21.537l-1.844 3.021c-0.491 1.007-1.352 2.14-3.442 2.14h-9.097l4.675-8.056h8.849c1.598 0 1.598 1.511 0.86 2.895zM79.557 8.195l-1.844 3.021c-0.492 1.007-1.352 2.14-3.442 2.14h-9.097l4.671-8.056h8.851c1.598 0 1.598 1.511 0.861 2.895z"></path>
<path d="M261.102 8.212c0-0.252-0.112-0.52-0.335-0.65-0.232-0.13-0.485-0.145-0.739-0.145h-1.322v3.019h0.449v-1.391h0.53l0.866 1.391h0.515l-0.918-1.391c0.537-0.015 0.955-0.237 0.955-0.833zM259.647 8.67h-0.493v-0.91h0.784c0.381 0 0.717 0.053 0.717 0.443 0 0.543-0.582 0.466-1.008 0.466z"></path>
</symbol>
</defs>
</svg>
